<svg width="76" height="76" viewBox="0 0 76 76" fill="none" xmlns="http://www.w3.org/2000/svg">
<path d="M42.1905 58.7949C38.3272 65.4721 41.4848 70.9459 49.2115 70.9459H65.461C73.1877 70.9459 76.3453 65.4721 72.491 58.7949L64.3572 44.7078C60.4939 38.0216 54.1877 38.0216 50.3153 44.7078L42.1905 58.7949Z" fill="#4200FF"/>
<path d="M45.2872 35.4419C49.1144 28.7467 49.0601 17.7991 45.1786 11.131L44.1382 9.33953C40.2477 2.66238 33.9234 2.68048 30.0691 9.37572L1.64146 58.7848C-2.21283 65.471 0.962889 70.9448 8.67147 70.9448H10.9605C18.6781 70.9448 28.1239 65.462 31.951 58.7577L45.2872 35.4419Z" fill="#4200FF"/>
</svg>
