<svg width="76" height="76" viewBox="0 0 76 76" fill="none" xmlns="http://www.w3.org/2000/svg">
<path d="M42.1905 58.7947C38.3272 65.4718 41.4848 70.9456 49.2115 70.9456H65.461C73.1877 70.9456 76.3453 65.4718 72.491 58.7947L64.3572 44.7075C60.4939 38.0213 54.1877 38.0213 50.3153 44.7075L42.1905 58.7947Z" fill="white"/>
<path d="M45.2872 35.4417C49.1144 28.7465 49.0601 17.7989 45.1786 11.1308L44.1382 9.33934C40.2477 2.6622 33.9234 2.68029 30.0691 9.37554L1.64146 58.7846C-2.21283 65.4708 0.962889 70.9446 8.67147 70.9446H10.9605C18.6781 70.9446 28.1239 65.4618 31.951 58.7575L45.2872 35.4417Z" fill="white"/>
</svg>
